<!-- filepath: /home/dsandoval/workspaces/busines/english-books-business/public/images/particles.svg -->
<svg width="120" height="120" viewBox="0 0 120 120" xmlns="http://www.w3.org/2000/svg">
  <g fill="#1e3a8a" fill-opacity="0.1">
    <circle cx="10" cy="10" r="3" />
    <circle cx="30" cy="20" r="4" />
    <circle cx="50" cy="15" r="2" />
    <circle cx="70" cy="25" r="3" />
    <circle cx="90" cy="10" r="2" />
    <circle cx="110" cy="20" r="3" />
    
    <circle cx="15" cy="40" r="2" />
    <circle cx="35" cy="45" r="3" />
    <circle cx="55" cy="40" r="2" />
    <circle cx="75" cy="35" r="4" />
    <circle cx="95" cy="45" r="2" />
    <circle cx="115" cy="40" r="3" />
    
    <circle cx="10" cy="60" r="4" />
    <circle cx="30" cy="70" r="2" />
    <circle cx="50" cy="65" r="3" />
    <circle cx="70" cy="75" r="2" />
    <circle cx="90" cy="60" r="3" />
    <circle cx="110" cy="70" r="2" />
    
    <circle cx="15" cy="90" r="2" />
    <circle cx="35" cy="85" r="4" />
    <circle cx="55" cy="90" r="2" />
    <circle cx="75" cy="85" r="3" />
    <circle cx="95" cy="95" r="2" />
    <circle cx="115" cy="90" r="3" />
    
    <circle cx="10" cy="110" r="3" />
    <circle cx="30" cy="105" r="2" />
    <circle cx="50" cy="115" r="4" />
    <circle cx="70" cy="105" r="2" />
    <circle cx="90" cy="110" r="3" />
    <circle cx="110" cy="115" r="2" />
  </g>
</svg>